<svg width="249.414" height="81.006" viewBox="0 0 249.414 81.006" xmlns="http://www.w3.org/2000/svg"><g id="svgGroup" stroke-linecap="round" fill-rule="evenodd" font-size="9pt" stroke="#ffffff" stroke-width="0" fill="#ffffff" style="stroke:#ffffff;stroke-width:0;fill:#ffffff"><path d="M 16.455 79.981 L 0.635 79.981 A 0.661 0.661 0 0 1 0.342 79.92 Q 0 79.754 0 79.126 Q 0 78.272 0.22 78.101 A 1.907 1.907 0 0 1 0.4 77.978 Q 0.49 77.923 0.597 77.868 A 4.427 4.427 0 0 1 0.83 77.759 Q 1.149 77.619 1.616 77.186 A 8.241 8.241 0 0 0 1.831 76.978 A 3.204 3.204 0 0 0 2.18 76.553 Q 2.519 76.071 2.878 75.294 A 16.431 16.431 0 0 0 3.125 74.732 A 8.649 8.649 0 0 0 3.78 72.109 A 8.052 8.052 0 0 0 3.809 71.436 L 3.809 8.545 A 8.901 8.901 0 0 0 3.327 5.565 A 7.747 7.747 0 0 0 1.465 2.637 A 1.025 1.025 0 0 0 1.34 2.533 Q 1.111 2.368 0.635 2.149 A 1.022 1.022 0 0 1 0.067 1.463 Q 0.013 1.273 0.002 1.038 A 2.548 2.548 0 0 1 0 0.928 Q 0 0 0.635 0 L 52.393 0 A 0.447 0.447 0 0 1 52.702 0.139 Q 52.967 0.39 53.179 1.093 A 6.493 6.493 0 0 1 53.223 1.245 Q 53.565 2.49 54.443 4.736 L 56.006 8.692 A 78.417 78.417 0 0 1 56.166 9.095 Q 56.686 10.416 56.689 10.594 A 0.119 0.119 0 0 1 56.69 10.596 Q 56.69 10.756 56.212 10.95 A 4.698 4.698 0 0 1 55.982 11.035 A 11.115 11.115 0 0 1 55.694 11.13 Q 55.22 11.279 55.029 11.279 A 0.445 0.445 0 0 1 54.81 11.214 Q 54.558 11.071 54.252 10.614 A 4.83 4.83 0 0 1 54.224 10.571 Q 53.812 9.943 52.786 9.104 A 16.987 16.987 0 0 0 52.515 8.887 A 2.7 2.7 0 0 0 51.711 8.489 Q 50.302 8.016 47.183 7.93 A 53.594 53.594 0 0 0 45.703 7.91 L 13.281 7.91 L 13.281 32.129 L 44.092 32.129 A 8.901 8.901 0 0 0 47.072 31.648 A 7.747 7.747 0 0 0 50 29.785 A 1.025 1.025 0 0 0 50.104 29.66 Q 50.269 29.431 50.488 28.955 A 1.022 1.022 0 0 1 51.174 28.387 Q 51.364 28.333 51.599 28.323 A 2.548 2.548 0 0 1 51.709 28.32 Q 52.637 28.32 52.637 28.955 L 52.637 43.115 A 0.661 0.661 0 0 1 52.576 43.408 Q 52.41 43.75 51.782 43.75 Q 50.928 43.75 50.757 43.53 A 1.907 1.907 0 0 1 50.634 43.35 Q 50.579 43.26 50.525 43.153 A 4.427 4.427 0 0 1 50.415 42.92 Q 50.275 42.601 49.842 42.135 A 8.241 8.241 0 0 0 49.634 41.919 A 3.008 3.008 0 0 0 49.209 41.574 Q 48.727 41.243 47.951 40.905 A 15.152 15.152 0 0 0 47.388 40.674 A 9.099 9.099 0 0 0 44.351 40.043 A 8.672 8.672 0 0 0 44.092 40.039 L 13.281 40.039 L 13.281 71.436 A 8.901 8.901 0 0 0 13.763 74.415 A 7.747 7.747 0 0 0 15.625 77.344 A 1.025 1.025 0 0 0 15.75 77.448 Q 15.979 77.612 16.455 77.832 A 1.022 1.022 0 0 1 17.023 78.518 Q 17.077 78.708 17.088 78.942 A 2.548 2.548 0 0 1 17.09 79.053 Q 17.09 79.981 16.455 79.981 Z M 196.631 8.154 L 196.68 7.276 A 0.421 0.421 0 0 1 196.795 6.987 Q 196.856 6.919 196.948 6.86 A 10.73 10.73 0 0 0 197.041 6.801 Q 197.226 6.68 197.266 6.641 L 206.055 0.147 A 0.433 0.433 0 0 1 206.18 0.087 Q 206.447 0 207.105 0 A 5.279 5.279 0 0 1 207.537 0.017 Q 208.066 0.06 208.35 0.22 Q 208.729 0.433 208.74 1.453 A 5.709 5.709 0 0 1 208.74 1.514 Q 208.74 35.197 208.826 57.202 A 5703.845 5703.845 0 0 0 208.887 69.58 A 3.92 3.92 0 0 1 208.908 69.705 Q 209.009 70.357 208.74 70.313 Q 208.691 70.313 209.009 70.581 Q 209.265 70.798 209.888 70.872 A 5.142 5.142 0 0 0 210.205 70.899 A 6.005 6.005 0 0 1 210.585 70.931 Q 211.146 70.998 211.372 71.163 A 0.556 0.556 0 0 1 211.377 71.167 A 0.513 0.513 0 0 1 211.525 71.358 Q 211.67 71.655 211.67 72.29 A 5.228 5.228 0 0 1 211.661 72.602 Q 211.632 73.085 211.505 73.264 A 0.269 0.269 0 0 1 211.426 73.34 L 203.32 79.981 A 0.405 0.405 0 0 1 203.197 80.037 Q 202.9 80.127 202.075 80.127 A 7.796 7.796 0 0 1 201.683 80.118 Q 201.132 80.09 200.906 79.976 A 0.384 0.384 0 0 1 200.806 79.907 Q 200.61 79.712 200.589 79.363 A 1.45 1.45 0 0 1 200.586 79.273 Q 200.586 78.858 200.659 78.443 Q 200.724 78.077 200.618 77.542 A 4.787 4.787 0 0 0 200.586 77.393 A 3.315 3.315 0 0 0 200.523 77.158 Q 200.417 76.815 200.279 76.716 A 0.222 0.222 0 0 0 200.22 76.685 Q 200.013 76.616 199.484 76.956 A 5.036 5.036 0 0 0 199.414 77.002 L 198.096 77.832 A 21.719 21.719 0 0 1 193.169 80.079 A 17.47 17.47 0 0 1 188.037 80.86 A 24.366 24.366 0 0 1 181.128 79.901 A 22.143 22.143 0 0 1 178.638 79.004 A 25.062 25.062 0 0 1 171.069 74.024 A 23.682 23.682 0 0 1 166.227 67.317 A 27.169 27.169 0 0 1 165.845 66.504 Q 163.867 62.11 163.867 56.104 A 23.866 23.866 0 0 1 166.394 45.499 A 28.277 28.277 0 0 1 166.943 44.434 A 21.799 21.799 0 0 1 175.781 35.596 Q 181.543 32.422 189.063 32.422 A 13.916 13.916 0 0 1 192.613 32.903 A 18.716 18.716 0 0 1 195.337 33.862 A 24.103 24.103 0 0 1 197.415 34.884 Q 198.417 35.442 199.207 36.036 A 10.589 10.589 0 0 1 200.342 37.012 L 200.879 37.012 Q 200.879 24.825 200.764 16.73 A 596.178 596.178 0 0 0 200.684 12.158 A 4.924 4.924 0 0 0 200.622 11.349 Q 200.464 10.404 199.902 9.912 A 3.279 3.279 0 0 0 199.229 9.45 A 2.465 2.465 0 0 0 198.242 9.18 A 5.367 5.367 0 0 1 197.862 9.146 Q 197.496 9.099 197.273 9.005 A 0.803 0.803 0 0 1 197.07 8.887 A 1.2 1.2 0 0 1 196.839 8.689 A 0.78 0.78 0 0 1 196.631 8.154 Z M 235.059 51.563 L 239.697 54.199 A 34.431 34.431 0 0 1 243.038 56.263 Q 246.371 58.617 247.84 61.144 A 9.849 9.849 0 0 1 247.998 61.426 A 11.317 11.317 0 0 1 249.082 64.463 Q 249.362 65.793 249.406 67.322 A 20.031 20.031 0 0 1 249.414 67.896 Q 249.414 71.729 247.217 74.902 A 13.386 13.386 0 0 1 239.918 80.075 Q 237.654 80.773 234.899 80.948 A 29.901 29.901 0 0 1 233.008 81.006 A 36.701 36.701 0 0 1 228.911 80.759 Q 225.256 80.347 220.801 79.248 A 1.11 1.11 0 0 0 220.685 79.199 Q 220.483 79.126 220.117 79.053 A 4.04 4.04 0 0 1 219.426 78.851 A 3.598 3.598 0 0 1 219.214 78.76 Q 218.837 78.583 218.762 77.882 A 3.097 3.097 0 0 1 218.75 77.735 A 6.047 6.047 0 0 0 218.703 77.286 Q 218.604 76.556 218.312 75.189 A 87.752 87.752 0 0 0 218.115 74.292 Q 217.647 72.202 217.553 71.315 A 3.618 3.618 0 0 1 217.529 70.947 A 7.02 7.02 0 0 1 217.534 70.692 Q 217.552 70.183 217.651 70.044 A 1.627 1.627 0 0 1 217.831 69.832 A 1.415 1.415 0 0 1 217.92 69.751 A 1.03 1.03 0 0 1 218.032 69.671 Q 218.154 69.594 218.334 69.518 A 3.475 3.475 0 0 1 218.359 69.507 Q 218.652 69.385 218.799 69.336 L 219.238 69.19 A 1.475 1.475 0 0 1 219.604 69.125 Q 220.298 69.095 220.923 69.781 A 4.141 4.141 0 0 1 221.314 70.288 A 3.486 3.486 0 0 0 222.015 71.03 Q 223.272 72.063 226.186 73.254 A 44.6 44.6 0 0 0 226.831 73.511 Q 231.397 75.293 234.717 75.293 A 10.704 10.704 0 0 0 237.032 75.056 Q 238.815 74.661 240.112 73.609 A 5.425 5.425 0 0 0 242.166 69.655 A 7.28 7.28 0 0 0 242.188 69.092 Q 242.188 65.137 237.451 62.647 L 228.662 57.959 A 83.885 83.885 0 0 1 227.025 57.017 Q 224.781 55.689 223.828 54.883 A 26.336 26.336 0 0 1 221.96 53.099 Q 221.097 52.183 220.466 51.298 A 11.499 11.499 0 0 1 219.58 49.854 A 11.205 11.205 0 0 1 218.438 45.93 A 13.914 13.914 0 0 1 218.359 44.434 A 12.68 12.68 0 0 1 218.882 40.69 A 9.479 9.479 0 0 1 222.778 35.498 Q 226.264 33.149 231.799 32.653 A 34.889 34.889 0 0 1 234.912 32.52 A 55.753 55.753 0 0 1 238.507 32.642 A 74.723 74.723 0 0 1 242.456 33.008 Q 246.582 33.496 247.559 34.522 Q 247.705 34.668 247.73 38.233 A 215.038 215.038 0 0 1 247.733 38.926 Q 247.744 41.958 247.656 43.408 A 0.425 0.425 0 0 1 247.39 43.816 Q 247.149 43.931 246.69 43.921 A 3.478 3.478 0 0 1 246.68 43.921 Q 245.703 43.897 245.508 43.897 A 0.744 0.744 0 0 1 244.922 43.612 Q 244.75 43.41 244.629 43.067 Q 243.72 40.918 241.133 39.416 A 14.161 14.161 0 0 0 240.137 38.892 A 17.355 17.355 0 0 0 236.651 37.64 A 13.853 13.853 0 0 0 233.447 37.256 A 11.165 11.165 0 0 0 230.484 37.634 A 9.117 9.117 0 0 0 227.783 38.867 A 6.408 6.408 0 0 0 226.483 40.002 A 4.391 4.391 0 0 0 225.391 42.944 A 4.834 4.834 0 0 0 227.043 46.615 A 7.053 7.053 0 0 0 227.588 47.07 A 33.262 33.262 0 0 0 231.348 49.542 A 30.054 30.054 0 0 0 232.056 49.927 Q 234.014 50.959 234.828 51.428 A 15.028 15.028 0 0 1 235.059 51.563 Z M 132.08 47.754 L 95.264 61.084 Q 97.363 66.846 102.344 70.117 A 20.003 20.003 0 0 0 112.884 73.376 A 24.15 24.15 0 0 0 113.672 73.389 A 17.121 17.121 0 0 0 123.636 70.129 Q 126.01 68.475 128.226 65.982 A 33.224 33.224 0 0 0 128.369 65.82 Q 129.395 64.844 131.397 66.846 Q 131.535 66.984 131.369 67.253 A 1.131 1.131 0 0 1 131.348 67.285 Q 125.781 75 122.705 77.149 Q 117.481 80.86 110.645 80.86 Q 106.006 80.86 101.66 79.004 A 23.835 23.835 0 0 1 88.916 66.504 Q 86.963 62.11 86.963 56.079 A 23.857 23.857 0 0 1 89.827 44.808 A 27.863 27.863 0 0 1 90.015 44.458 A 22.039 22.039 0 0 1 98.853 35.645 Q 104.639 32.422 112.158 32.422 A 19.111 19.111 0 0 1 124.295 36.811 A 28.96 28.96 0 0 1 128.467 40.918 A 30.394 30.394 0 0 1 129.962 42.836 Q 131.346 44.78 131.826 46.283 A 4.868 4.868 0 0 1 132.08 47.754 Z M 139.893 8.154 L 139.941 7.276 A 0.421 0.421 0 0 1 140.057 6.987 Q 140.118 6.919 140.21 6.86 A 10.73 10.73 0 0 0 140.303 6.801 Q 140.488 6.68 140.527 6.641 L 149.316 0.147 A 0.718 0.718 0 0 1 149.615 0.017 A 0.996 0.996 0 0 1 149.805 0 A 4.516 4.516 0 0 1 150.562 0.058 Q 151.914 0.289 151.952 1.446 A 2.062 2.062 0 0 1 151.953 1.514 L 151.953 71.436 A 14.23 14.23 0 0 1 151.952 71.631 Q 151.947 71.961 151.929 72.51 Q 151.906 73.184 151.905 73.486 A 8.351 8.351 0 0 0 151.904 73.535 A 9.433 9.433 0 0 0 152.112 74.86 Q 152.596 76.891 153.955 77.344 A 11.25 11.25 0 0 1 154.553 77.612 Q 155.713 78.177 155.713 78.613 Q 155.713 79.401 155.502 79.735 A 0.479 0.479 0 0 1 155.078 79.981 L 140.723 79.981 Q 140.182 79.981 140.102 79.342 A 1.942 1.942 0 0 1 140.088 79.102 A 3.059 3.059 0 0 1 140.109 78.73 Q 140.178 78.167 140.479 77.979 A 4.191 4.191 0 0 1 140.806 77.796 Q 141.107 77.643 141.504 77.49 Q 142.139 77.246 142.505 76.88 A 4.744 4.744 0 0 0 143.127 76.108 A 5.235 5.235 0 0 0 143.164 76.05 A 10.835 10.835 0 0 0 143.348 75.748 Q 143.428 75.613 143.492 75.493 A 4.433 4.433 0 0 0 143.604 75.269 Q 143.736 74.982 143.808 74.456 A 6.566 6.566 0 0 0 143.823 74.341 A 25.674 25.674 0 0 0 143.852 74.094 Q 143.889 73.761 143.895 73.598 A 1.574 1.574 0 0 0 143.897 73.535 L 143.897 12.158 Q 143.897 10.569 143.16 9.906 A 1.661 1.661 0 0 0 143.14 9.888 A 3.091 3.091 0 0 0 142.429 9.416 A 2.473 2.473 0 0 0 141.504 9.18 A 5.367 5.367 0 0 1 141.124 9.146 Q 140.758 9.099 140.534 9.005 A 0.803 0.803 0 0 1 140.332 8.887 A 1.2 1.2 0 0 1 140.1 8.689 A 0.78 0.78 0 0 1 139.893 8.154 Z M 79.15 79.981 L 64.697 79.981 Q 64.156 79.981 64.076 79.342 A 1.942 1.942 0 0 1 64.063 79.102 A 3.059 3.059 0 0 1 64.083 78.73 Q 64.153 78.167 64.453 77.979 A 4.191 4.191 0 0 1 64.78 77.796 Q 65.082 77.643 65.479 77.49 Q 67.548 76.646 67.864 73.755 A 9.983 9.983 0 0 0 67.92 72.803 L 67.92 45.606 A 4.924 4.924 0 0 0 67.858 44.796 Q 67.7 43.851 67.139 43.36 A 3.279 3.279 0 0 0 66.465 42.897 A 2.465 2.465 0 0 0 65.479 42.627 A 5.466 5.466 0 0 1 65.073 42.59 Q 64.677 42.539 64.434 42.432 A 0.974 0.974 0 0 1 64.258 42.334 A 0.672 0.672 0 0 1 64.043 42.065 Q 63.916 41.794 63.916 41.333 A 13.213 13.213 0 0 1 63.917 41.154 Q 63.924 40.675 63.967 40.528 A 0.163 0.163 0 0 1 63.989 40.479 A 0.504 0.504 0 0 1 64.045 40.417 Q 64.108 40.357 64.21 40.29 A 2.183 2.183 0 0 1 64.258 40.259 A 5.354 5.354 0 0 0 64.336 40.209 Q 64.464 40.126 64.502 40.088 L 73.291 33.594 Q 73.519 33.431 73.682 33.431 A 0.271 0.271 0 0 1 73.828 33.472 A 0.929 0.929 0 0 0 73.94 33.528 Q 74.221 33.653 74.994 33.885 A 56.529 56.529 0 0 0 75 33.887 Q 75.524 34.044 75.767 34.342 A 0.949 0.949 0 0 1 75.977 34.961 L 75.977 72.998 Q 75.977 76.563 78.369 77.49 A 7.341 7.341 0 0 1 78.85 77.708 Q 79.597 78.083 79.747 78.436 A 0.45 0.45 0 0 1 79.785 78.613 Q 79.785 79.401 79.575 79.735 A 0.479 0.479 0 0 1 79.15 79.981 Z M 200.635 68.897 L 200.781 47.608 A 16.135 16.135 0 0 0 194.456 41.454 A 19.19 19.19 0 0 0 194.19 41.309 Q 189.893 39.014 184.522 39.014 Q 177.441 39.014 173.145 46.24 A 18.923 18.923 0 0 0 171.733 49.194 Q 171.081 50.958 170.938 52.633 A 10.98 10.98 0 0 0 170.898 53.565 A 23.734 23.734 0 0 0 171.825 60.352 A 18.719 18.719 0 0 0 176.514 68.286 Q 182.129 73.975 190.967 73.975 A 9.137 9.137 0 0 0 193.903 73.469 A 12.747 12.747 0 0 0 196.118 72.461 A 19.085 19.085 0 0 0 199.264 70.243 A 16.498 16.498 0 0 0 200.635 68.897 Z M 121.777 45.996 L 121.875 46.045 A 12.837 12.837 0 0 0 119.185 41.432 Q 116.817 38.902 113.023 38.131 A 18.076 18.076 0 0 0 109.424 37.793 A 14.435 14.435 0 0 0 101.465 40.112 A 16.116 16.116 0 0 0 96.705 44.719 A 15.638 15.638 0 0 0 95.923 46.021 A 18.341 18.341 0 0 0 94.679 48.855 Q 94.123 50.511 94.018 52.069 A 10.697 10.697 0 0 0 93.994 52.783 Q 93.994 55.957 94.19 55.908 L 121.777 46.289 L 121.777 45.996 Z M 75.83 9.131 L 75.83 13.086 A 1.534 1.534 0 0 1 75.813 13.325 Q 75.794 13.447 75.752 13.544 A 0.568 0.568 0 0 1 75.586 13.77 A 1.002 1.002 0 0 1 75.439 13.86 Q 74.999 14.093 73.511 14.649 A 60.296 60.296 0 0 0 72.655 14.975 Q 71.833 15.296 71.265 15.552 A 12.867 12.867 0 0 0 70.801 15.772 Q 70.21 16.067 69.741 16.252 A 6.958 6.958 0 0 1 69.312 16.406 A 3.315 3.315 0 0 1 69.157 16.452 Q 68.761 16.558 68.606 16.472 A 0.186 0.186 0 0 1 68.555 16.431 Q 68.429 16.284 68.411 15.007 A 32.648 32.648 0 0 1 68.408 14.551 L 68.408 9.912 A 2.496 2.496 0 0 0 68.407 9.83 Q 68.402 9.693 68.384 9.473 Q 68.359 9.18 68.384 9.082 A 1.24 1.24 0 0 0 68.398 9.02 Q 68.41 8.958 68.422 8.872 A 5.389 5.389 0 0 0 68.433 8.789 A 0.525 0.525 0 0 1 68.493 8.606 Q 68.53 8.538 68.587 8.47 A 1.12 1.12 0 0 1 68.652 8.399 A 0.66 0.66 0 0 1 68.783 8.308 Q 69.116 8.118 70.17 7.712 A 54.429 54.429 0 0 1 70.679 7.52 A 60.296 60.296 0 0 0 71.535 7.193 Q 72.356 6.872 72.924 6.616 A 12.867 12.867 0 0 0 73.389 6.397 A 26.628 26.628 0 0 1 73.955 6.142 Q 75.24 5.582 75.544 5.655 A 0.137 0.137 0 0 1 75.61 5.689 Q 75.828 5.906 75.83 9.057 A 92.756 92.756 0 0 1 75.83 9.131 Z"/></g></svg>